<?xml version="1.0" standalone="no"?><svg xmlns="http://www.w3.org/2000/svg" viewBox="0 0 1440 320"><path fill="#04203D" fill-opacity="1" d="M0,128L30,122.7C60,117,120,107,180,133.3C240,160,300,224,360,229.3C420,235,480,181,540,165.3C600,149,660,171,720,170.7C780,171,840,149,900,165.3C960,181,1020,235,1080,266.7C1140,299,1200,309,1260,277.3C1320,245,1380,171,1410,133.3L1440,96L1440,320L1410,320C1380,320,1320,320,1260,320C1200,320,1140,320,1080,320C1020,320,960,320,900,320C840,320,780,320,720,320C660,320,600,320,540,320C480,320,420,320,360,320C300,320,240,320,180,320C120,320,60,320,30,320L0,320Z"></path></svg>